<svg width="61" height="66" viewBox="0 0 61 66" fill="none" xmlns="http://www.w3.org/2000/svg">
<path d="M30.5 0.916656L0.875 12.5833V30.0833C0.875 46.2708 13.515 61.4083 30.5 65.0833C47.485 61.4083 60.125 46.2708 60.125 30.0833V12.5833L30.5 0.916656ZM30.5 23.9292C35.7667 23.9292 40.0129 27.6917 40.0129 32.3583C40.0129 37.025 35.7667 40.7875 30.5 40.7875C25.2333 40.7875 20.9871 36.9958 20.9871 32.3583C20.9871 27.7208 25.2663 23.9292 30.5 23.9292ZM30.5 15.5L35.0425 21.3333C33.66 20.8083 32.1458 20.5458 30.5 20.5458C28.0312 20.5458 27.3729 20.8083 25.9575 21.3333L30.5 15.5ZM14.0417 23.9292L21.9417 23.3458C20.8225 24.25 19.7692 25.2417 18.9792 26.4667C18.1562 27.6917 17.6625 28.975 17.3333 30.3167L14.0417 23.9292ZM14.0417 40.7875L17.4321 34.4583C17.6954 35.7125 18.2221 37.025 18.9792 38.25C19.8021 39.5042 20.8225 40.5542 21.9417 41.4L14.0417 40.7875ZM46.9583 23.9292L43.6667 30.3167C43.3375 28.975 42.8108 27.6917 42.0208 26.4667C41.2308 25.2417 40.2104 24.25 39.0583 23.3167L46.9583 23.9292ZM46.9583 40.7875L39.0583 41.3708C40.1775 40.525 41.1979 39.475 42.0208 38.25C42.8108 37.025 43.3046 35.7125 43.5679 34.4583L46.9583 40.7875ZM30.5 49.1875L25.9246 43.4125C27.34 43.85 28.8542 44.1417 30.5 44.1417C32.1458 44.1417 33.6271 43.85 35.0096 43.4125L30.5 49.1875Z" fill="white"/>
</svg>
