<svg width="144" height="144" viewBox="0 0 144 144" fill="none" xmlns="http://www.w3.org/2000/svg">
<path d="M130.5 22.5H13.5C11.0109 22.5 9 24.5109 9 27V117C9 119.489 11.0109 121.5 13.5 121.5H130.5C132.989 121.5 135 119.489 135 117V27C135 24.5109 132.989 22.5 130.5 22.5ZM124.875 111.375H19.125V105.764L38.6016 82.6594L59.7094 107.691L92.5453 68.7656L124.875 107.1V111.375ZM124.875 93.1219L93.4031 55.8C92.9531 55.2656 92.1375 55.2656 91.6875 55.8L59.7094 93.7125L39.4594 69.7078C39.0094 69.1734 38.1937 69.1734 37.7437 69.7078L19.125 91.7859V32.625H124.875V93.1219ZM42.75 64.125C44.3751 64.125 45.9843 63.8049 47.4857 63.183C48.9871 62.5611 50.3513 61.6496 51.5004 60.5004C52.6496 59.3513 53.5611 57.9871 54.183 56.4857C54.8049 54.9843 55.125 53.3751 55.125 51.75C55.125 50.1249 54.8049 48.5157 54.183 47.0143C53.5611 45.5129 52.6496 44.1487 51.5004 42.9996C50.3513 41.8504 48.9871 40.9389 47.4857 40.317C45.9843 39.6951 44.3751 39.375 42.75 39.375C39.4679 39.375 36.3203 40.6788 33.9996 42.9996C31.6788 45.3203 30.375 48.4679 30.375 51.75C30.375 55.0321 31.6788 58.1797 33.9996 60.5004C36.3203 62.8212 39.4679 64.125 42.75 64.125ZM42.75 47.8125C44.9297 47.8125 46.6875 49.5703 46.6875 51.75C46.6875 53.9297 44.9297 55.6875 42.75 55.6875C40.5703 55.6875 38.8125 53.9297 38.8125 51.75C38.8125 49.5703 40.5703 47.8125 42.75 47.8125Z" fill="#CCCCCC"/>
</svg>
