<svg width="20" height="20" viewBox="0 0 20 20" fill="none" xmlns="http://www.w3.org/2000/svg">
<path d="M19.9184 9.42024C19.8885 9.32381 19.1822 7.00833 17.622 4.70476C15.5344 1.62738 12.9034 0 10.0006 0C7.09784 0 4.46681 1.62738 2.38166 4.70476C0.82143 7.00833 0.115091 9.32381 0.0828386 9.42024C0.0282128 9.60309 0 9.80075 0 10.0006C0 10.2004 0.0282128 10.3981 0.0828386 10.581C0.112673 10.6786 0.819011 12.9929 2.38005 15.2964C4.46681 18.3738 7.09784 20 10.0006 20C12.9034 20 15.5344 18.3738 17.6187 15.2964C19.1798 12.9929 19.8861 10.6786 19.9159 10.581C19.971 10.3983 19.9996 10.2008 20 10.001C20.0004 9.80112 19.9726 9.60334 19.9184 9.42024ZM16.2044 13.3488C14.4733 15.8655 12.3865 17.1429 10.0006 17.1429C7.6147 17.1429 5.52793 15.8655 3.79918 13.3476C3.11895 12.3538 2.5338 11.2275 2.05994 10C2.53395 8.77297 3.11908 7.64712 3.79918 6.65357C5.52874 4.13452 7.6147 2.85714 10.0006 2.85714C12.3865 2.85714 14.4725 4.13452 16.202 6.65357C16.8822 7.64702 17.4673 8.77289 17.9413 10C17.4673 11.2274 16.8822 12.3537 16.202 13.3476L16.2044 13.3488ZM10.0006 4.7619C9.29891 4.7619 8.61298 5.06911 8.02954 5.64468C7.44611 6.22025 6.99137 7.03833 6.72285 7.99547C6.45432 8.9526 6.38406 10.0058 6.52096 11.0219C6.65785 12.038 6.99574 12.9713 7.49192 13.7039C7.98809 14.4365 8.62025 14.9353 9.30846 15.1374C9.99667 15.3396 10.71 15.2358 11.3583 14.8394C12.0066 14.4429 12.5607 13.7715 12.9505 12.9101C13.3403 12.0487 13.5484 11.036 13.5484 10C13.5474 8.61125 13.1732 7.27984 12.5081 6.29785C11.843 5.31586 10.9412 4.76348 10.0006 4.7619ZM10.0006 12.381C9.68165 12.381 9.36986 12.2413 9.10466 11.9797C8.83947 11.7181 8.63277 11.3462 8.51071 10.9112C8.38866 10.4761 8.35672 9.99736 8.41894 9.5355C8.48117 9.07364 8.63476 8.64939 8.86029 8.31641C9.08582 7.98343 9.37317 7.75667 9.68599 7.6648C9.99881 7.57293 10.3231 7.62008 10.6177 7.80029C10.9124 7.9805 11.1643 8.28567 11.3415 8.67721C11.5187 9.06876 11.6132 9.52909 11.6132 10C11.6132 10.6315 11.4433 11.2371 11.1409 11.6836C10.8385 12.1301 10.4283 12.381 10.0006 12.381Z" fill="#888383"/>
</svg>
