<svg width="15" height="15" viewBox="0 0 15 15" fill="none" xmlns="http://www.w3.org/2000/svg">
<g clip-path="url(#clip0_947_1449)">
<path d="M13.6181 0.924924L13.9868 1.29367C14.4949 1.80242 14.4181 2.7043 13.8137 3.30805L6.20932 10.9124L3.74557 11.8137C3.43619 11.9274 3.13494 11.7799 3.07369 11.4855C3.05306 11.3788 3.0628 11.2683 3.10182 11.1668L4.02057 8.6818L11.6037 1.09805C12.2081 0.494299 13.1099 0.416174 13.6181 0.924924ZM5.87744 1.68117C5.95952 1.68117 6.04079 1.69734 6.11662 1.72875C6.19245 1.76016 6.26135 1.8062 6.31938 1.86423C6.37742 1.92227 6.42346 1.99117 6.45487 2.067C6.48628 2.14283 6.50244 2.2241 6.50244 2.30617C6.50244 2.38825 6.48628 2.46952 6.45487 2.54535C6.42346 2.62118 6.37742 2.69008 6.31938 2.74812C6.26135 2.80615 6.19245 2.85219 6.11662 2.8836C6.04079 2.91501 5.95952 2.93117 5.87744 2.93117H3.37744C3.04592 2.93117 2.72798 3.06287 2.49356 3.29729C2.25914 3.53171 2.12744 3.84965 2.12744 4.18117V11.6812C2.12744 12.0127 2.25914 12.3306 2.49356 12.5651C2.72798 12.7995 3.04592 12.9312 3.37744 12.9312H10.8774C11.209 12.9312 11.5269 12.7995 11.7613 12.5651C11.9957 12.3306 12.1274 12.0127 12.1274 11.6812V9.18117C12.1274 9.01541 12.1933 8.85644 12.3105 8.73923C12.4277 8.62202 12.5867 8.55617 12.7524 8.55617C12.9182 8.55617 13.0772 8.62202 13.1944 8.73923C13.3116 8.85644 13.3774 9.01541 13.3774 9.18117V11.6812C13.3774 12.3442 13.114 12.9801 12.6452 13.4489C12.1764 13.9178 11.5405 14.1812 10.8774 14.1812H3.37744C2.7144 14.1812 2.07852 13.9178 1.60967 13.4489C1.14083 12.9801 0.877441 12.3442 0.877441 11.6812V4.18117C0.877441 3.51813 1.14083 2.88225 1.60967 2.41341C2.07852 1.94457 2.7144 1.68117 3.37744 1.68117H5.87744Z" fill="black"/>
</g>
<defs>
<clipPath id="clip0_947_1449">
<rect width="15" height="15" fill="white"/>
</clipPath>
</defs>
</svg>
