<svg width="25" height="27" viewBox="0 0 25 27" fill="none" xmlns="http://www.w3.org/2000/svg">
<path d="M18.6193 0.0135118C18.554 -0.0506129 16.1982 0.0388242 14.1481 1.99125C12.0981 3.94199 12.4135 6.17961 12.4596 6.23698C12.5058 6.29435 15.3828 6.38379 17.2193 4.11412C19.0559 1.84444 18.6847 0.0793239 18.6193 0.0135118ZM24.9925 19.8128C24.9002 19.6508 20.5213 17.7305 20.929 14.0383C21.3367 10.346 24.1502 9.33184 24.1944 9.22215C24.2387 9.11246 23.0463 7.88903 21.7828 7.26972C20.855 6.83351 19.8284 6.58338 18.777 6.53735C18.5693 6.53229 17.8482 6.37704 16.3655 6.7331C15.3885 6.96766 13.1866 7.72704 12.5808 7.75741C11.9731 7.78778 10.1654 6.87654 8.22112 6.63523C6.97688 6.42429 5.65763 6.85629 4.71338 7.18873C3.77106 7.51947 1.97873 8.46109 0.724867 10.9636C-0.528996 13.4645 0.126782 17.4267 0.596019 18.6586C1.06526 19.8905 1.79796 21.9053 3.04413 23.3768C4.15184 25.0373 5.62109 26.1899 6.23456 26.5814C6.84803 26.9729 8.57882 27.2327 9.77884 26.6944C10.7442 26.1747 12.4866 25.876 13.175 25.8979C13.8616 25.9199 15.2155 26.1578 16.602 26.8075C17.7001 27.1399 18.7386 27.0016 19.779 26.6303C20.8194 26.2574 22.3252 24.8433 24.0829 21.9762C24.7496 20.6431 25.0528 19.922 24.9925 19.8128Z" fill="#0D5BA5"/>
</svg>
