<svg width="60" height="60" viewBox="0 0 60 60" fill="none" xmlns="http://www.w3.org/2000/svg">
<path fill-rule="evenodd" clip-rule="evenodd" d="M42.0665 8.78999L47.404 14.1275C55.2469 21.9733 59.1669 25.8933 59.1669 30.7642C59.1669 35.6379 55.2469 39.5579 47.404 47.4008C39.5582 55.2467 35.6382 59.1667 30.7644 59.1667C25.8936 59.1667 21.9707 55.2467 14.1278 47.4037L8.79026 42.0662C4.28401 37.5571 2.02943 35.3054 1.19234 32.38C0.352344 29.4546 1.06984 26.3483 2.50484 20.1387L3.33026 16.5571C4.53484 11.3304 5.13859 8.71708 6.92651 6.92624C8.71443 5.13541 11.3307 4.53458 16.5573 3.32999L20.139 2.50166C26.3515 1.06958 29.4548 0.352077 32.3803 1.18916C35.3057 2.02916 37.5603 4.28374 42.0665 8.78999ZM27.5094 36.79C25.5465 34.83 25.5611 32.0125 26.7365 29.7812C26.4455 29.3609 26.3109 28.852 26.3561 28.3428C26.4013 27.8336 26.6234 27.3562 26.9838 26.9937C27.3442 26.6312 27.8203 26.4064 28.3292 26.3583C28.8381 26.3102 29.3479 26.4418 29.7698 26.7304C30.7615 26.2054 31.8494 25.9254 32.9344 25.9371C33.5146 25.9425 34.0688 26.1782 34.4752 26.5922C34.8816 27.0063 35.1069 27.5648 35.1015 28.145C35.0961 28.7252 34.8604 29.2794 34.4464 29.6858C34.0323 30.0922 33.4738 30.3175 32.8936 30.3121C32.2182 30.337 31.58 30.6273 31.1173 31.12C29.9886 32.2487 30.2832 33.3804 30.6011 33.6983C30.9219 34.0162 32.0507 34.3108 33.1794 33.1821C35.4661 30.8954 39.4153 30.1371 41.944 32.6658C43.9069 34.6287 43.8923 37.4462 42.7169 39.6775C43.0061 40.0979 43.1392 40.6061 43.0932 41.1143C43.0472 41.6225 42.825 42.0986 42.4651 42.4602C42.1052 42.8219 41.6301 43.0464 41.1222 43.0948C40.6143 43.1432 40.1054 43.0125 39.6836 42.7254C38.3748 43.4435 36.8565 43.6828 35.3903 43.4021C34.8217 43.2853 34.3228 42.9474 34.0034 42.4628C33.684 41.9781 33.5701 41.3865 33.6869 40.8179C33.8037 40.2493 34.1416 39.7505 34.6262 39.431C35.1109 39.1116 35.7025 38.9978 36.2711 39.1146C36.7873 39.2225 37.6215 39.0533 38.3361 38.3387C39.4648 37.2071 39.1703 36.0783 38.8523 35.7604C38.5315 35.4425 37.4028 35.1479 36.274 36.2767C33.9873 38.5633 30.0382 39.3217 27.5094 36.79ZM24.2253 25.0212C24.7669 24.4795 25.1964 23.8363 25.4895 23.1285C25.7825 22.4207 25.9333 21.6621 25.9331 20.896C25.933 20.13 25.782 19.3714 25.4887 18.6637C25.1954 17.956 24.7656 17.313 24.2238 16.7715C23.682 16.2299 23.0389 15.8003 22.3311 15.5072C21.6233 15.2142 20.8647 15.0635 20.0986 15.0636C19.3325 15.0637 18.574 15.2148 17.8663 15.508C17.1586 15.8013 16.5156 16.2311 15.974 16.7729C14.8802 17.8671 14.2659 19.351 14.2662 20.8981C14.2664 22.4452 14.8813 23.9289 15.9755 25.0227C17.0697 26.1165 18.5535 26.7308 20.1007 26.7306C21.6478 26.7303 23.1315 26.1154 24.2253 25.0212Z" fill="white"/>
</svg>
