<svg width="26" height="26" viewBox="0 0 26 26" fill="none" xmlns="http://www.w3.org/2000/svg">
<g clip-path="url(#clip0_837_352)">
<path d="M24.4583 11.958H1.54167C0.96637 11.958 0.5 12.4244 0.5 12.9997C0.5 13.575 0.96637 14.0414 1.54167 14.0414H24.4583C25.0336 14.0414 25.5 13.575 25.5 12.9997C25.5 12.4244 25.0336 11.958 24.4583 11.958Z" fill="black"/>
<path d="M24.4583 4.66699H1.54167C0.96637 4.66699 0.5 5.13336 0.5 5.70866C0.5 6.28395 0.96637 6.75032 1.54167 6.75032H24.4583C25.0336 6.75032 25.5 6.28395 25.5 5.70866C25.5 5.13336 25.0336 4.66699 24.4583 4.66699Z" fill="black"/>
<path d="M24.4583 19.25H1.54167C0.96637 19.25 0.5 19.7164 0.5 20.2917C0.5 20.867 0.96637 21.3333 1.54167 21.3333H24.4583C25.0336 21.3333 25.5 20.867 25.5 20.2917C25.5 19.7164 25.0336 19.25 24.4583 19.25Z" fill="black"/>
</g>
<defs>
<clipPath id="clip0_837_352">
<rect width="25" height="25" fill="white" transform="translate(0.5 0.5)"/>
</clipPath>
</defs>
</svg>
