<svg width="27" height="27" viewBox="0 0 27 27" fill="none" xmlns="http://www.w3.org/2000/svg">
<path d="M26.9986 13.5297C27.0182 15.8999 26.4014 18.2319 25.2126 20.2824C24.0247 22.3311 22.3079 24.0227 20.2419 25.1802C18.2109 26.3596 15.9066 26.9869 13.558 27C11.1987 26.9848 8.88445 26.3518 6.84584 25.164C4.80559 23.9753 3.11157 22.2739 1.93185 20.2284C0.71221 18.2033 0.0460234 15.8933 0 13.5297C0 11.1564 0.627749 8.82495 1.81575 6.7716C2.99547 4.72615 4.68949 3.02469 6.72974 1.836C8.76796 0.648418 11.0817 0.0154131 13.4406 0C16.69 0.0135 19.8261 1.1961 22.2763 3.3345C22.3651 3.41748 22.4359 3.51781 22.4843 3.62928C22.5327 3.74075 22.5577 3.86098 22.5577 3.9825C22.5577 4.10402 22.5327 4.22425 22.4843 4.33572C22.4359 4.44719 22.3651 4.54752 22.2763 4.6305L19.7761 7.1361C19.614 7.28033 19.4045 7.36001 19.1875 7.36001C18.9705 7.36001 18.7611 7.28033 18.5989 7.1361C17.1834 5.94734 15.406 5.27474 13.558 5.22855C12.1147 5.225 10.6963 5.60468 9.44776 6.32881C8.19922 7.05294 7.1653 8.09554 6.45164 9.3501C5.69463 10.6139 5.28828 12.0566 5.27444 13.5297C5.28148 14.973 5.6674 16.3891 6.39359 17.6364C7.11929 18.8887 8.16534 19.9251 9.42423 20.6393C10.6831 21.3534 12.1095 21.7195 13.5567 21.6999C14.9965 21.698 16.4103 21.3161 17.6553 20.5929C19.2536 19.6353 20.4901 18.1756 21.172 16.4417H15.0106C14.8947 16.4419 14.7799 16.4189 14.6729 16.3741C14.5659 16.3294 14.469 16.2637 14.3878 16.1809C14.3065 16.0982 14.2426 16 14.1998 15.8923C14.157 15.7845 14.1362 15.6693 14.1385 15.5534V12.073C14.1365 11.9579 14.1577 11.8435 14.2008 11.7367C14.2439 11.63 14.308 11.5329 14.3894 11.4514C14.4708 11.3699 14.5677 11.3057 14.6744 11.2624C14.7812 11.2191 14.8955 11.1978 15.0106 11.1996H26.0104C26.2188 11.1964 26.4214 11.2681 26.5814 11.4017C26.7415 11.5352 26.8483 11.7217 26.8825 11.9272C26.9689 12.4565 27.0081 12.9937 26.9986 13.5297Z" fill="#0D5BA5"/>
</svg>
