<svg width="30" height="30" viewBox="0 0 30 30" fill="none" xmlns="http://www.w3.org/2000/svg">
<path d="M27.0833 16.6667H16.6667V27.0833C16.6667 27.6359 16.4472 28.1658 16.0565 28.5565C15.6658 28.9472 15.1359 29.1667 14.5833 29.1667C14.0308 29.1667 13.5009 28.9472 13.1102 28.5565C12.7195 28.1658 12.5 27.6359 12.5 27.0833V16.6667H2.08333C1.5308 16.6667 1.0009 16.4472 0.610195 16.0565C0.219494 15.6658 0 15.1359 0 14.5833C0 14.0308 0.219494 13.5009 0.610195 13.1102C1.0009 12.7195 1.5308 12.5 2.08333 12.5H12.5V2.08333C12.5 1.5308 12.7195 1.00089 13.1102 0.610194C13.5009 0.219493 14.0308 0 14.5833 0C15.1359 0 15.6658 0.219493 16.0565 0.610194C16.4472 1.00089 16.6667 1.5308 16.6667 2.08333V12.5H27.0833C27.6359 12.5 28.1658 12.7195 28.5565 13.1102C28.9472 13.5009 29.1667 14.0308 29.1667 14.5833C29.1667 15.1359 28.9472 15.6658 28.5565 16.0565C28.1658 16.4472 27.6359 16.6667 27.0833 16.6667Z" fill="#313131"/>
</svg>
